<?xml version="1.0" encoding="utf-8"?>
<?xml-stylesheet type="text/xsl" href="rss1.xsl"?>
<rss version="2.0" xmlns:atom="http://www.w3.org/2005/Atom" xmlns:content="http://purl.org/rss/1.0/modules/content/" xmlns:dc="http://purl.org/dc/elements/1.1/" xmlns:media="http://search.yahoo.com/mrss/">
<channel>
 <title>Getty</title>
 <link>http://www.gettyimg.com/</link>
 <atom:link href="http://www.gettyimg.com/" rel="self" type="application/rss+xml" />

 
                <item>
                <title><![CDATA[【HD Live Performances】FEED - (Sammy Kershaw) [2023] STAGECOACH BACKHAUL FEED HDTV 1080i MP2-Chox]]></title>
                <link><![CDATA[https://sharemania.us/threads/sammy-kershaw-2023-stagecoach-backhaul-feed-hdtv-1080i-mp2-chox.223235/]]></link>
                <description><![CDATA[<article>
<blockquote class="messageText SelectQuoteContainer ugc baseHtml">
<img src="https://cdn.discordapp.com/attachments/839606016152043523/1121895551227662416/STAGECOACH_-_B20230428-141100.ts_20230623_151122.521.jpg" class="bbCodeImage LbImage" alt="[​IMG]" data-url="https://cdn.discordapp.com/attachments/839606016152043523/1121895551227662416/STAGECOACH_-_B20230428-141100.ts_20230623_151122.521.jpg" style=""> <br>
<img src="https://cdn.discordapp.com/attachments/839606016152043523/1121895485297397840/STAGECOACH_-_B20230428-141100.mkv.jpg" class="bbCodeImage LbImage" alt="[​IMG]" data-url="https://cdn.discordapp.com/attachments/839606016152043523/1121895485297397840/STAGECOACH_-_B20230428-141100.mkv.jpg" style=""> <br>
<div class="bbCodeBlock bbCodeVfcHH HiddenContent">
<div class="attribution type">Hidden Content:</div>
<blockquote>You must either reply or click 'Like' to see the hidden information contained here.</blockquote>
</div><br>
<div class="bbCodeBlock bbCodeVfcHH HiddenContent">
<div class="attribution type">Hidden Content:</div>
<blockquote>You must reply before you can see the hidden data contained here.</blockquote>
</div>
<div class="messageTextEndMarker">&nbsp;</div>
</blockquote>
</article>]]></description>
                <author><![CDATA[Chox]]></author>
                </item>

                
                <item>
                <title><![CDATA[【HD Live Performances】FEED - Lizzo - Good As Hell (Live @ Glastonbury 2019) FEED HDTV H264 422 1080i MP2-ilya2129]]></title>
                <link><![CDATA[https://sharemania.us/threads/lizzo-good-as-hell-live-glastonbury-2019-feed-hdtv-h264-422-1080i-mp2-ilya2129.223234/]]></link>
                <description><![CDATA[<article>
<blockquote class="messageText SelectQuoteContainer ugc baseHtml">
<div style="text-align: center"><img src="https://i122.fastpic.org/big/2023/0623/b4/b37c6294354538a70aac338bdf3af5b4.png?r=1" class="bbCodeImage LbImage" alt="[​IMG]" data-url="https://i122.fastpic.org/big/2023/0623/b4/b37c6294354538a70aac338bdf3af5b4.png?r=1" style=""><br>
<br>
<a href="https://postimg.cc/gLYxSbQx" target="_blank" class="externalLink" rel="nofollow"><img src="https://i.postimg.cc/gLYxSbQx/vlcsnap-2023-06-23-23h01m40s308.png" class="bbCodeImage LbImage" alt="[​IMG]" data-url="https://i.postimg.cc/gLYxSbQx/vlcsnap-2023-06-23-23h01m40s308.png"></a> <a href="https://postimg.cc/hzNCTM5Z" target="_blank" class="externalLink" rel="nofollow"><img src="https://i.postimg.cc/hzNCTM5Z/vlcsnap-2023-06-23-23h02m34s085.png" class="bbCodeImage LbImage" alt="[​IMG]" data-url="https://i.postimg.cc/hzNCTM5Z/vlcsnap-2023-06-23-23h02m34s085.png"></a> <a href="https://postimg.cc/dk3X8ht3" target="_blank" class="externalLink" rel="nofollow"><img src="https://i.postimg.cc/dk3X8ht3/vlcsnap-2023-06-23-23h02m41s897.png" class="bbCodeImage LbImage" alt="[​IMG]" data-url="https://i.postimg.cc/dk3X8ht3/vlcsnap-2023-06-23-23h02m41s897.png"></a> <a href="https://postimg.cc/4nrM9NC4" target="_blank" class="externalLink" rel="nofollow"><img src="https://i.postimg.cc/4nrM9NC4/vlcsnap-2023-06-23-23h02m49s578.png" class="bbCodeImage LbImage" alt="[​IMG]" data-url="https://i.postimg.cc/4nrM9NC4/vlcsnap-2023-06-23-23h02m49s578.png"></a> <a href="https://postimg.cc/8sF9cf0n" target="_blank" class="externalLink" rel="nofollow"><img src="https://i.postimg.cc/8sF9cf0n/vlcsnap-2023-06-23-23h02m57s577.png" class="bbCodeImage LbImage" alt="[​IMG]" data-url="https://i.postimg.cc/8sF9cf0n/vlcsnap-2023-06-23-23h02m57s577.png"></a> <br>
<br>
​</div><br>
<div class="bbCodeBlock bbCodeCode">
<div class="type">Code:</div>
<pre>General
ID                                       : 1 (0x1)
Complete name                            : D:\Lizzo - Good As Hell (Live @ Glastonbury 2019) FEED HDTV H264 422 1080i MP2-ilya2129.ts
Format                                   : MPEG-TS
File size                                : 598 MiB
Duration                                 : 2 min 47 s
Overall bit rate mode                    : Variable
Overall bit rate                         : 30.0 Mb/s
Frame rate                               : 25.000 FPS

Video
ID                                       : 100 (0x64)
Menu ID                                  : 1 (0x1)
Format                                   : AVC
Format/Info                              : Advanced Video Codec
Format profile                           : High 4:2:2@L5.1
Format settings                          : CABAC / 2 Ref Frames
Format settings, CABAC                   : Yes
Format settings, Reference frames        : 2 frames
Codec ID                                 : 27
Duration                                 : 2 min 46 s
Bit rate                                 : 28.3 Mb/s
Width                                    : 1 920 pixels
Height                                   : 1 080 pixels
Display aspect ratio                     : 16:9
Frame rate                               : 25.000 FPS
Color space                              : YUV
Chroma subsampling                       : 4:2:2
Bit depth                                : 8 bits
Scan type                                : Interlaced
Scan type, store method                  : Separated fields
Scan order                               : Top Field First
Bits/(Pixel*Frame)                       : 0.546
Stream size                              : 562 MiB (94%)
Color range                              : Limited
Color primaries                          : BT.709
Transfer characteristics                 : BT.709
Matrix coefficients                      : BT.709

Audio
ID                                       : 200 (0xC8)
Menu ID                                  : 1 (0x1)
Format                                   : MPEG Audio
Format version                           : Version 1
Format profile                           : Layer 2
Codec ID                                 : 3
Duration                                 : 2 min 47 s
Bit rate mode                            : Constant
Bit rate                                 : 256 kb/s
Channel(s)                               : 2 channels
Sampling rate                            : 48.0 kHz
Frame rate                               : 41.667 FPS (1152 SPF)
Compression mode                         : Lossy
Delay relative to video                  : 22 ms
Stream size                              : 5.10 MiB (1%)
Language                                 : English
Language, more info                      : Clean effects
</pre>
</div>
<div class="bbCodeBlock bbCodeVfcHH HiddenContent">
<div class="attribution type">Hidden Content:</div>
<blockquote>You must reply before you can see the hidden data contained here.</blockquote>
</div>
<div class="messageTextEndMarker">&nbsp;</div>
</blockquote>
</article>]]></description>
                <author><![CDATA[ilya2129]]></author>
                </item>

                </channel></rss>